
<svg xmlns="http://www.w3.org/2000/svg"
     xmlns:xlink="http://www.w3.org/1999/xlink" version="1.1" width="736"
     height="329">
    <defs/>
    <g transform=" scale(0.89) translate(-145.5,-75.5)">
        <rect x="150" y="80" width="140" height="360" fill="#efd3d2"
              stroke="#000000" pointer-events="none"/>
        <rect x="309" y="409" width="2" height="2" fill="#000000" stroke="none"
              pointer-events="none"/>
        <path d="M 291 410 L 309 410" fill="#000000" stroke="#000000"
              stroke-width="2" stroke-linecap="square" stroke-miterlimit="10"
              pointer-events="none"/>
        <g fill="#000000" font-family="Arial,Helvetica" font-weight="bold"
           text-anchor="end" font-size="12px">
            <text x="287" y="413.5">
                GND
            </text>
        </g>
        <rect x="190" y="90" width="38" height="13" fill-opacity="0"
              fill="#dae2f2" stroke="none" pointer-events="none"/>
        <g fill="#000000" font-family="Arial,Helvetica" font-weight="bold"
           text-anchor="middle" font-size="12px">
            <text x="209" y="100.5">
                Arduino
            </text>
        </g>
        <rect x="160" y="110" width="101" height="14" fill-opacity="0"
              fill="#dae2f2" stroke="none" pointer-events="none"/>
        <g fill="#000000" font-family="Arial,Helvetica" font-weight="bold"
           text-anchor="middle" font-size="12px">
            <text x="210.5" y="121">
                Adafruit Metro Mini
            </text>
        </g>
        <rect x="309" y="189" width="2" height="2" fill="#000000" stroke="none"
              pointer-events="none"/>
        <path d="M 291 190 L 309 190" fill="#000000" stroke="#000000"
              stroke-width="2" stroke-linecap="square" stroke-miterlimit="10"
              pointer-events="none"/>
        <g fill="#000000" font-family="Arial,Helvetica" font-weight="bold"
           text-anchor="end" font-size="12px">
            <text x="287" y="193.5">
                Pulse 
            </text>
        </g>
        <rect x="309" y="139" width="2" height="2" fill="#000000" stroke="none"
              pointer-events="none"/>
        <path d="M 291 140 L 309 140" fill="#000000" stroke="#000000"
              stroke-width="2" stroke-linecap="square" stroke-miterlimit="10"
              pointer-events="none"/>
        <g fill="#000000" font-family="Arial,Helvetica" font-weight="bold"
           text-anchor="end" font-size="12px">
            <text x="287" y="143.5">
                5V
            </text>
        </g>
        <rect x="309" y="339" width="2" height="2" fill="#000000" stroke="none"
              pointer-events="none"/>
        <path d="M 291 340 L 309 340" fill="#000000" stroke="#000000"
              stroke-width="2" stroke-linecap="square" stroke-miterlimit="10"
              pointer-events="none"/>
        <g fill="#000000" font-family="Arial,Helvetica" font-weight="bold"
           text-anchor="end" font-size="12px">
            <text x="287" y="343.5">
                Reset
            </text>
        </g>
        <rect x="439" y="229" width="2" height="2" fill="#000000" stroke="none"
              pointer-events="none"/>
        <rect x="439" y="189" width="2" height="2" fill="#000000" stroke="none"
              pointer-events="none"/>
        <rect x="389" y="229" width="2" height="2" fill="#000000" stroke="none"
              pointer-events="none"/>
        <rect x="389" y="189" width="2" height="2" fill="#000000" stroke="none"
              pointer-events="none"/>
        <path d="M 425.14 200 C 422.11 200.01 419.65 197.78 419.64 195.01 C 419.63 192.25 422.08 190.01 425.1 190 C 425.11 190 425.11 190 425.12 190"
              fill="none" stroke="#000000" stroke-width="2"
              stroke-linejoin="round" stroke-linecap="round"
              stroke-miterlimit="10" pointer-events="none"/>
        <path d="M 425 190 L 427 190" fill="none" stroke="#000000"
              stroke-width="2" stroke-linejoin="round" stroke-linecap="round"
              stroke-miterlimit="10" pointer-events="none"/>
        <path d="M 425 200 L 427 200" fill="none" stroke="#000000"
              stroke-width="2" stroke-linejoin="round" stroke-linecap="round"
              stroke-miterlimit="10" pointer-events="none"/>
        <path d="M 425.14 210 C 422.11 210.01 419.65 207.78 419.64 205.01 C 419.63 202.25 422.08 200.01 425.1 200 C 425.11 200 425.11 200 425.12 200"
              fill="none" stroke="#000000" stroke-width="2"
              stroke-linejoin="round" stroke-linecap="round"
              stroke-miterlimit="10" pointer-events="none"/>
        <path d="M 425 200 L 427 200" fill="none" stroke="#000000"
              stroke-width="2" stroke-linejoin="round" stroke-linecap="round"
              stroke-miterlimit="10" pointer-events="none"/>
        <path d="M 425 210 L 427 210" fill="none" stroke="#000000"
              stroke-width="2" stroke-linejoin="round" stroke-linecap="round"
              stroke-miterlimit="10" pointer-events="none"/>
        <path d="M 425.14 220 C 422.11 220.01 419.65 217.78 419.64 215.01 C 419.63 212.25 422.08 210.01 425.1 210 C 425.11 210 425.11 210 425.12 210"
              fill="none" stroke="#000000" stroke-width="2"
              stroke-linejoin="round" stroke-linecap="round"
              stroke-miterlimit="10" pointer-events="none"/>
        <path d="M 425 210 L 427 210" fill="none" stroke="#000000"
              stroke-width="2" stroke-linejoin="round" stroke-linecap="round"
              stroke-miterlimit="10" pointer-events="none"/>
        <path d="M 425 220 L 427 220" fill="none" stroke="#000000"
              stroke-width="2" stroke-linejoin="round" stroke-linecap="round"
              stroke-miterlimit="10" pointer-events="none"/>
        <path d="M 425.14 230 C 422.11 230.01 419.65 227.78 419.64 225.01 C 419.63 222.25 422.08 220.01 425.1 220 C 425.11 220 425.11 220 425.12 220"
              fill="none" stroke="#000000" stroke-width="2"
              stroke-linejoin="round" stroke-linecap="round"
              stroke-miterlimit="10" pointer-events="none"/>
        <path d="M 425 220 L 427 220" fill="none" stroke="#000000"
              stroke-width="2" stroke-linejoin="round" stroke-linecap="round"
              stroke-miterlimit="10" pointer-events="none"/>
        <path d="M 425 230 L 427 230" fill="none" stroke="#000000"
              stroke-width="2" stroke-linejoin="round" stroke-linecap="round"
              stroke-miterlimit="10" pointer-events="none"/>
        <path d="M 416 190 L 416 230" fill="none" stroke="#000000"
              stroke-width="2" stroke-linejoin="round" stroke-linecap="round"
              stroke-miterlimit="10" pointer-events="none"/>
        <path d="M 413 190 L 413 230" fill="none" stroke="#000000"
              stroke-width="2" stroke-linejoin="round" stroke-linecap="round"
              stroke-miterlimit="10" pointer-events="none"/>
        <path d="M 428 230 L 438.5 230" fill="none" stroke="#000000"
              stroke-width="2" stroke-linecap="square" stroke-miterlimit="10"
              pointer-events="none"/>
        <path d="M 428 190 L 438.5 190" fill="none" stroke="#000000"
              stroke-width="2" stroke-linecap="square" stroke-miterlimit="10"
              pointer-events="none"/>
        <path d="M 403.86 200 C 406.89 200.01 409.35 197.78 409.36 195.01 C 409.37 192.25 406.92 190.01 403.9 190 C 403.89 190 403.89 190 403.88 190"
              fill="none" stroke="#000000" stroke-width="2"
              stroke-linejoin="round" stroke-linecap="round"
              stroke-miterlimit="10" pointer-events="none"/>
        <path d="M 404 190 L 402 190" fill="none" stroke="#000000"
              stroke-width="2" stroke-linejoin="round" stroke-linecap="round"
              stroke-miterlimit="10" pointer-events="none"/>
        <path d="M 404 200 L 402 200" fill="none" stroke="#000000"
              stroke-width="2" stroke-linejoin="round" stroke-linecap="round"
              stroke-miterlimit="10" pointer-events="none"/>
        <path d="M 403.86 210 C 406.89 210.01 409.35 207.78 409.36 205.01 C 409.37 202.25 406.92 200.01 403.9 200 C 403.89 200 403.89 200 403.88 200"
              fill="none" stroke="#000000" stroke-width="2"
              stroke-linejoin="round" stroke-linecap="round"
              stroke-miterlimit="10" pointer-events="none"/>
        <path d="M 404 200 L 402 200" fill="none" stroke="#000000"
              stroke-width="2" stroke-linejoin="round" stroke-linecap="round"
              stroke-miterlimit="10" pointer-events="none"/>
        <path d="M 404 210 L 402 210" fill="none" stroke="#000000"
              stroke-width="2" stroke-linejoin="round" stroke-linecap="round"
              stroke-miterlimit="10" pointer-events="none"/>
        <path d="M 403.86 220 C 406.89 220.01 409.35 217.78 409.36 215.01 C 409.37 212.25 406.92 210.01 403.9 210 C 403.89 210 403.89 210 403.88 210"
              fill="none" stroke="#000000" stroke-width="2"
              stroke-linejoin="round" stroke-linecap="round"
              stroke-miterlimit="10" pointer-events="none"/>
        <path d="M 404 210 L 402 210" fill="none" stroke="#000000"
              stroke-width="2" stroke-linejoin="round" stroke-linecap="round"
              stroke-miterlimit="10" pointer-events="none"/>
        <path d="M 404 220 L 402 220" fill="none" stroke="#000000"
              stroke-width="2" stroke-linejoin="round" stroke-linecap="round"
              stroke-miterlimit="10" pointer-events="none"/>
        <path d="M 403.86 230 C 406.89 230.01 409.35 227.78 409.36 225.01 C 409.37 222.25 406.92 220.01 403.9 220 C 403.89 220 403.89 220 403.88 220"
              fill="none" stroke="#000000" stroke-width="2"
              stroke-linejoin="round" stroke-linecap="round"
              stroke-miterlimit="10" pointer-events="none"/>
        <path d="M 404 220 L 402 220" fill="none" stroke="#000000"
              stroke-width="2" stroke-linejoin="round" stroke-linecap="round"
              stroke-miterlimit="10" pointer-events="none"/>
        <path d="M 404 230 L 402 230" fill="none" stroke="#000000"
              stroke-width="2" stroke-linejoin="round" stroke-linecap="round"
              stroke-miterlimit="10" pointer-events="none"/>
        <path d="M 391.5 230 L 402 230" fill="none" stroke="#000000"
              stroke-width="2" stroke-linecap="square" stroke-miterlimit="10"
              pointer-events="none"/>
        <path d="M 390.5 190 L 401 190" fill="none" stroke="#000000"
              stroke-width="2" stroke-linecap="square" stroke-miterlimit="10"
              pointer-events="none"/>
        <rect x="380" y="170" width="57" height="13" fill-opacity="0"
              fill="#dae2f2" stroke="none" pointer-events="none"/>
        <g fill="#000000" font-family="Arial,Helvetica" font-weight="bold"
           text-anchor="middle" font-size="12px">
            <text x="408.5" y="180.5">
                Single Core
            </text>
        </g>
        <rect x="379" y="349" width="2" height="2" fill="#000000" stroke="none"
              pointer-events="none"/>
        <rect x="379" y="409" width="2" height="2" fill="#000000" stroke="none"
              pointer-events="none"/>
        <path d="M 380 362 L 387 365 L 380 368" fill="none" stroke="#000000"
              stroke-width="2" stroke-linejoin="round" stroke-linecap="round"
              stroke-miterlimit="10" pointer-events="none"/>
        <path d="M 380 368 L 373 371 L 380 374" fill="none" stroke="#000000"
              stroke-width="2" stroke-linejoin="round" stroke-linecap="round"
              stroke-miterlimit="10" pointer-events="none"/>
        <path d="M 380 374 L 387 377 L 380 380" fill="none" stroke="#000000"
              stroke-width="2" stroke-linejoin="round" stroke-linecap="round"
              stroke-miterlimit="10" pointer-events="none"/>
        <path d="M 380 380 L 373 383 L 380 386" fill="none" stroke="#000000"
              stroke-width="2" stroke-linejoin="round" stroke-linecap="round"
              stroke-miterlimit="10" pointer-events="none"/>
        <path d="M 380 386 L 387 389 L 380 392" fill="none" stroke="#000000"
              stroke-width="2" stroke-linejoin="round" stroke-linecap="round"
              stroke-miterlimit="10" pointer-events="none"/>
        <path d="M 380 392 L 373 395 L 380 398" fill="none" stroke="#000000"
              stroke-width="2" stroke-linejoin="round" stroke-linecap="round"
              stroke-miterlimit="10" pointer-events="none"/>
        <path d="M 380 351 L 380 361" fill="#000000" stroke="#000000"
              stroke-width="2" stroke-linecap="square" stroke-miterlimit="10"
              pointer-events="none"/>
        <path d="M 380 399 L 380 409" fill="#000000" stroke="#000000"
              stroke-width="2" stroke-linecap="square" stroke-miterlimit="10"
              pointer-events="none"/>
        <rect x="358" y="376" width="13" height="14" fill-opacity="0"
              fill="#dae2f2" stroke="none" pointer-events="none"/>
        <g fill="#000000" font-family="Arial,Helvetica" font-weight="bold"
           text-anchor="middle" font-size="12px">
            <text x="364.5" y="387">
                50
            </text>
        </g>
        <rect x="509" y="229" width="2" height="2" fill="#000000" stroke="none"
              pointer-events="none"/>
        <rect x="509" y="289" width="2" height="2" fill="#000000" stroke="none"
              pointer-events="none"/>
        <path d="M 510 242 L 517 245 L 510 248" fill="none" stroke="#000000"
              stroke-width="2" stroke-linejoin="round" stroke-linecap="round"
              stroke-miterlimit="10" pointer-events="none"/>
        <path d="M 510 248 L 503 251 L 510 254" fill="none" stroke="#000000"
              stroke-width="2" stroke-linejoin="round" stroke-linecap="round"
              stroke-miterlimit="10" pointer-events="none"/>
        <path d="M 510 254 L 517 257 L 510 260" fill="none" stroke="#000000"
              stroke-width="2" stroke-linejoin="round" stroke-linecap="round"
              stroke-miterlimit="10" pointer-events="none"/>
        <path d="M 510 260 L 503 263 L 510 266" fill="none" stroke="#000000"
              stroke-width="2" stroke-linejoin="round" stroke-linecap="round"
              stroke-miterlimit="10" pointer-events="none"/>
        <path d="M 510 266 L 517 269 L 510 272" fill="none" stroke="#000000"
              stroke-width="2" stroke-linejoin="round" stroke-linecap="round"
              stroke-miterlimit="10" pointer-events="none"/>
        <path d="M 510 272 L 503 275 L 510 278" fill="none" stroke="#000000"
              stroke-width="2" stroke-linejoin="round" stroke-linecap="round"
              stroke-miterlimit="10" pointer-events="none"/>
        <path d="M 510 231 L 510 241" fill="#000000" stroke="#000000"
              stroke-width="2" stroke-linecap="square" stroke-miterlimit="10"
              pointer-events="none"/>
        <path d="M 510 279 L 510 289" fill="#000000" stroke="#000000"
              stroke-width="2" stroke-linecap="square" stroke-miterlimit="10"
              pointer-events="none"/>
        <rect x="488" y="256" width="12" height="13" fill-opacity="0"
              fill="#dae2f2" stroke="none" pointer-events="none"/>
        <g fill="#000000" font-family="Arial,Helvetica" font-weight="bold"
           text-anchor="middle" font-size="12px">
            <text x="494" y="266.5">
                50
            </text>
        </g>
        <rect x="509" y="349" width="2" height="2" fill="#000000" stroke="none"
              pointer-events="none"/>
        <rect x="509" y="409" width="2" height="2" fill="#000000" stroke="none"
              pointer-events="none"/>
        <path d="M 510 362 L 517 365 L 510 368" fill="none" stroke="#000000"
              stroke-width="2" stroke-linejoin="round" stroke-linecap="round"
              stroke-miterlimit="10" pointer-events="none"/>
        <path d="M 510 368 L 503 371 L 510 374" fill="none" stroke="#000000"
              stroke-width="2" stroke-linejoin="round" stroke-linecap="round"
              stroke-miterlimit="10" pointer-events="none"/>
        <path d="M 510 374 L 517 377 L 510 380" fill="none" stroke="#000000"
              stroke-width="2" stroke-linejoin="round" stroke-linecap="round"
              stroke-miterlimit="10" pointer-events="none"/>
        <path d="M 510 380 L 503 383 L 510 386" fill="none" stroke="#000000"
              stroke-width="2" stroke-linejoin="round" stroke-linecap="round"
              stroke-miterlimit="10" pointer-events="none"/>
        <path d="M 510 386 L 517 389 L 510 392" fill="none" stroke="#000000"
              stroke-width="2" stroke-linejoin="round" stroke-linecap="round"
              stroke-miterlimit="10" pointer-events="none"/>
        <path d="M 510 392 L 503 395 L 510 398" fill="none" stroke="#000000"
              stroke-width="2" stroke-linejoin="round" stroke-linecap="round"
              stroke-miterlimit="10" pointer-events="none"/>
        <path d="M 510 351 L 510 361" fill="#000000" stroke="#000000"
              stroke-width="2" stroke-linecap="square" stroke-miterlimit="10"
              pointer-events="none"/>
        <path d="M 510 399 L 510 409" fill="#000000" stroke="#000000"
              stroke-width="2" stroke-linecap="square" stroke-miterlimit="10"
              pointer-events="none"/>
        <rect x="488" y="376" width="12" height="13" fill-opacity="0"
              fill="#dae2f2" stroke="none" pointer-events="none"/>
        <g fill="#000000" font-family="Arial,Helvetica" font-weight="bold"
           text-anchor="middle" font-size="12px">
            <text x="494" y="386.5">
                4k
            </text>
        </g>
        <rect x="509" y="159" width="2" height="2" fill="#000000" stroke="none"
              pointer-events="none"/>
        <rect x="509" y="219" width="2" height="2" fill="#000000" stroke="none"
              pointer-events="none"/>
        <path d="M 510 172 L 517 175 L 510 178" fill="none" stroke="#000000"
              stroke-width="2" stroke-linejoin="round" stroke-linecap="round"
              stroke-miterlimit="10" pointer-events="none"/>
        <path d="M 510 178 L 503 181 L 510 184" fill="none" stroke="#000000"
              stroke-width="2" stroke-linejoin="round" stroke-linecap="round"
              stroke-miterlimit="10" pointer-events="none"/>
        <path d="M 510 184 L 517 187 L 510 190" fill="none" stroke="#000000"
              stroke-width="2" stroke-linejoin="round" stroke-linecap="round"
              stroke-miterlimit="10" pointer-events="none"/>
        <path d="M 510 190 L 503 193 L 510 196" fill="none" stroke="#000000"
              stroke-width="2" stroke-linejoin="round" stroke-linecap="round"
              stroke-miterlimit="10" pointer-events="none"/>
        <path d="M 510 196 L 517 199 L 510 202" fill="none" stroke="#000000"
              stroke-width="2" stroke-linejoin="round" stroke-linecap="round"
              stroke-miterlimit="10" pointer-events="none"/>
        <path d="M 510 202 L 503 205 L 510 208" fill="none" stroke="#000000"
              stroke-width="2" stroke-linejoin="round" stroke-linecap="round"
              stroke-miterlimit="10" pointer-events="none"/>
        <path d="M 510 161 L 510 171" fill="#000000" stroke="#000000"
              stroke-width="2" stroke-linecap="square" stroke-miterlimit="10"
              pointer-events="none"/>
        <path d="M 510 209 L 510 219" fill="#000000" stroke="#000000"
              stroke-width="2" stroke-linecap="square" stroke-miterlimit="10"
              pointer-events="none"/>
        <rect x="488" y="186" width="12" height="13" fill-opacity="0"
              fill="#dae2f2" stroke="none" pointer-events="none"/>
        <g fill="#000000" font-family="Arial,Helvetica" font-weight="bold"
           text-anchor="middle" font-size="12px">
            <text x="494" y="196.5">
                6k
            </text>
        </g>
        <path d="M 510 290 L 510 350" fill="none" stroke="#000000"
              stroke-width="2" stroke-miterlimit="10" pointer-events="none"/>
        <path d="M 600 160 L 680 200 L 600 240 Z" fill="#96cea7" stroke="#000"
              stroke-width="2.4" stroke-miterlimit="10" pointer-events="none"/>
        <rect x="610" y="210" width="4" height="14" fill-opacity="0"
              fill="#dae2f2" stroke="none" pointer-events="none"/>
        <g fill="#000000" font-family="Arial,Helvetica" font-weight="bold"
           text-anchor="middle" font-size="24px">
            <text x="612" y="227">
                -
            </text>
        </g>
        <rect x="610" y="170" width="7" height="14" fill-opacity="0"
              fill="#dae2f2" stroke="none" pointer-events="none"/>
        <g fill="#000000" font-family="Arial,Helvetica" font-weight="bold"
           text-anchor="middle" font-size="18px">
            <text x="613.5" y="184">
                +
            </text>
        </g>
        <rect x="590" y="120" width="54" height="13" fill-opacity="0"
              fill="#dae2f2" stroke="none" pointer-events="none"/>
        <g fill="#000000" font-family="Arial,Helvetica" font-weight="bold"
           text-anchor="middle" font-size="12px">
            <text x="617" y="130.5">
                Comparitor
            </text>
        </g>
        <rect x="590" y="140" width="53" height="14" fill-opacity="0"
              fill="#dae2f2" stroke="none" pointer-events="none"/>
        <g fill="#000000" font-family="Arial,Helvetica" font-weight="bold"
           text-anchor="middle" font-size="12px">
            <text x="616.5" y="151">
                LM393AP
            </text>
        </g>
        <path d="M 510 220 L 600 220" fill="none" stroke="#000000"
              stroke-width="2" stroke-miterlimit="10" pointer-events="none"/>
        <g fill="#000000" font-family="Arial,Helvetica" text-anchor="middle"
           font-size="11px">
            <rect fill="#FFFFFF" stroke="none" x="529" y="224" width="64"
                  height="14" stroke-width="0"/>
            <text x="560" y="233.5">
                Ref @ +0.1v
            </text>
        </g>
        <path d="M 510 230 L 510 222" fill="none" stroke="#000000"
              stroke-width="2" stroke-miterlimit="10" pointer-events="none"/>
        <ellipse cx="510" cy="220" rx="2" ry="2" fill="#000000" stroke="#000000"
                 stroke-width="2" pointer-events="none"/>
        <rect x="699" y="199" width="2" height="2" fill="#000000" stroke="none"
              pointer-events="none"/>
        <rect x="779" y="199" width="2" height="2" fill="#000000" stroke="none"
              pointer-events="none"/>
        <rect x="699" y="239" width="2" height="2" fill="#000000" stroke="none"
              pointer-events="none"/>
        <rect x="779" y="239" width="2" height="2" fill="#000000" stroke="none"
              pointer-events="none"/>
        <path d="M 715 185 L 750 185 L 765 185 L 765 255 L 715 255 Z"
              fill="#ffffff" stroke="#000000" stroke-width="2"
              stroke-linejoin="round" stroke-linecap="round"
              stroke-miterlimit="10" pointer-events="none"/>
        <g fill="#000000" font-family="Arial,Helvetica" text-anchor="middle"
           font-size="12px">
            <text x="754.53" y="200.94">
                Q
            </text>
        </g>
        <g fill="#000000" font-family="Arial,Helvetica" text-anchor="middle"
           font-size="12px">
            <text x="754.53" y="240.94">
                Q
            </text>
        </g>
        <path d="M 750.53 232.94 L 758.53 232.94" fill="none" stroke="#000000"
              stroke-linecap="round" stroke-miterlimit="10"
              pointer-events="none"/>
        <g fill="#000000" font-family="Arial,Helvetica" text-anchor="middle"
           font-size="12px">
            <text x="724.53" y="200.94">
                S
            </text>
        </g>
        <g fill="#000000" font-family="Arial,Helvetica" text-anchor="middle"
           font-size="12px">
            <text x="724.53" y="240.94">
                R
            </text>
        </g>
        <ellipse cx="768" cy="240" rx="2.481363185" ry="2.481363185"
                 fill="#ffffff" stroke="#000000" stroke-width="2"
                 pointer-events="none"/>
        <path d="M 701 200 L 715 200" fill="none" stroke="#000000"
              stroke-width="2" stroke-linecap="square" stroke-miterlimit="10"
              pointer-events="none"/>
        <path d="M 765 200 L 779 200" fill="none" stroke="#000000"
              stroke-width="2" stroke-linecap="square" stroke-miterlimit="10"
              pointer-events="none"/>
        <path d="M 701 240 L 715 240" fill="none" stroke="#000000"
              stroke-width="2" stroke-linecap="square" stroke-miterlimit="10"
              pointer-events="none"/>
        <path d="M 771.23 240 L 779 240" fill="none" stroke="#000000"
              stroke-width="2" stroke-linecap="square" stroke-miterlimit="10"
              pointer-events="none"/>
        <rect x="710" y="170" width="60" height="14" fill-opacity="0"
              fill="#dae2f2" stroke="none" pointer-events="none"/>
        <g fill="#000000" font-family="Arial,Helvetica" font-weight="bold"
           text-anchor="middle" font-size="12px">
            <text x="740" y="181">
                CD4044BE
            </text>
        </g>
        <rect x="710" y="150" width="58" height="14" fill-opacity="0"
              fill="#dae2f2" stroke="none" pointer-events="none"/>
        <g fill="#000000" font-family="Arial,Helvetica" font-weight="bold"
           text-anchor="middle" font-size="12px">
            <text x="739" y="161">
                SR LATCH
            </text>
        </g>
        <path d="M 700 200 L 680 200" fill="none" stroke="#000000"
              stroke-width="2" stroke-miterlimit="10" pointer-events="none"/>
        <rect x="839" y="249" width="2" height="2" fill="#000000" stroke="none"
              transform="translate(0,280)scale(1,-1)translate(0,-280)"
              pointer-events="none"/>
        <rect x="839" y="309" width="2" height="2" fill="#000000" stroke="none"
              transform="translate(0,280)scale(1,-1)translate(0,-280)"
              pointer-events="none"/>
        <ellipse cx="840" cy="280" rx="19.644082235" ry="19.644082235"
                 fill="#ffffff" stroke="#000000" stroke-width="2"
                 transform="translate(0,280)scale(1,-1)translate(0,-280)"
                 pointer-events="none"/>
        <path d="M 832 272.26 C 854 272.26 848 272.26 848 272.26" fill="none"
              stroke="#000000" stroke-width="2" stroke-linecap="round"
              stroke-miterlimit="10"
              transform="translate(0,280)scale(1,-1)translate(0,-280)"
              pointer-events="none"/>
        <path d="M 839.86 272.54 C 839.86 272.54 839.86 272.54 832 287.26 C 847.72 287.26 847.72 287.26 847.72 287.26 Z"
              fill="#000000" stroke="#000000" stroke-width="1.49"
              stroke-linejoin="round" stroke-linecap="round"
              stroke-miterlimit="10"
              transform="translate(0,280)scale(1,-1)translate(0,-280)"
              pointer-events="none"/>
        <path d="M 840 251 L 840 309" fill="#000000" stroke="#000000"
              stroke-width="2" stroke-linecap="square" stroke-miterlimit="10"
              transform="translate(0,280)scale(1,-1)translate(0,-280)"
              pointer-events="none"/>
        <path d="M 866.5 271.02 L 870.74 275.26 L 873.57 268.19 Z"
              fill="#000000" stroke="#000000" stroke-linejoin="round"
              stroke-linecap="square" stroke-miterlimit="10"
              transform="translate(0,280)scale(1,-1)translate(0,-280)"
              pointer-events="none"/>
        <path d="M 862.25 279.52 L 870.74 271.04" fill="none" stroke="#000000"
              stroke-width="2" stroke-linejoin="round" stroke-linecap="round"
              stroke-miterlimit="10"
              transform="translate(0,280)scale(1,-1)translate(0,-280)"
              pointer-events="none"/>
        <path d="M 864.82 259.96 L 869.06 264.21 L 871.89 257.14 Z"
              fill="#000000" stroke="#000000" stroke-linejoin="round"
              stroke-linecap="round" stroke-miterlimit="10"
              transform="translate(0,280)scale(1,-1)translate(0,-280)"
              pointer-events="none"/>
        <path d="M 860.59 268.43 L 869.08 259.95" fill="none" stroke="#000000"
              stroke-width="2" stroke-linejoin="round" stroke-linecap="round"
              stroke-miterlimit="10"
              transform="translate(0,280)scale(1,-1)translate(0,-280)"
              pointer-events="none"/>
        <rect x="880" y="297" width="23" height="14" fill-opacity="0"
              fill="#dae2f2" stroke="none" pointer-events="none"/>
        <g fill="#000000" font-family="Arial,Helvetica" font-weight="bold"
           text-anchor="middle" font-size="12px">
            <text x="891.5" y="308">
                LED
            </text>
        </g>
        <rect x="860" y="310" width="56" height="14" fill-opacity="0"
              fill="#dae2f2" stroke="none" pointer-events="none"/>
        <g fill="#000000" font-family="Arial,Helvetica" font-weight="bold"
           text-anchor="middle" font-size="12px">
            <text x="888" y="321">
                (Data Out)
            </text>
        </g>
        <path d="M 780 200 L 840 200 L 840 250" fill="none" stroke="#000000"
              stroke-width="2" stroke-miterlimit="10" pointer-events="none"/>
        <path d="M 390 230 L 380 230 L 380 350" fill="none" stroke="#000000"
              stroke-width="2" stroke-miterlimit="10" pointer-events="none"/>
        <path d="M 310 190 L 390 190" fill="none" stroke="#000000"
              stroke-width="2" stroke-miterlimit="10" pointer-events="none"/>
        <path d="M 440 190 L 460 190 Q 470 190 470 180 L 470 130 Q 470 120 480 120 L 550 120 Q 560 120 560 130 L 560 170 Q 560 180 570 180 L 600 180"
              fill="none" stroke="#000000" stroke-width="2"
              stroke-miterlimit="10" pointer-events="none"/>
        <path d="M 440 230 L 470 230 L 470 310 L 508 310" fill="none"
              stroke="#000000" stroke-width="2" stroke-miterlimit="10"
              pointer-events="none"/>
        <ellipse cx="510" cy="310" rx="2" ry="2" fill="#000000" stroke="#000000"
                 stroke-width="2" pointer-events="none"/>
        <path d="M 380 410 L 510 410" fill="none" stroke="#000000"
              stroke-width="2" stroke-miterlimit="10" pointer-events="none"/>
        <path d="M 840 310 L 840 410 L 512 410" fill="none" stroke="#000000"
              stroke-width="2" stroke-miterlimit="10" pointer-events="none"/>
        <ellipse cx="510" cy="410" rx="2" ry="2" fill="#000000" stroke="#000000"
                 stroke-width="2" pointer-events="none"/>
        <path d="M 310 410 L 378 410" fill="none" stroke="#000000"
              stroke-width="2" stroke-miterlimit="10" pointer-events="none"/>
        <ellipse cx="380" cy="410" rx="2" ry="2" fill="#000000" stroke="#000000"
                 stroke-width="2" pointer-events="none"/>
        <path d="M 310 140 L 510 140 L 510 160" fill="none" stroke="#000000"
              stroke-width="2" stroke-miterlimit="10" pointer-events="none"/>
        <path d="M 310 340 L 700 340 L 700 240" fill="none" stroke="#000000"
              stroke-width="2" stroke-miterlimit="10" pointer-events="none"/>
    </g>
</svg>